<?xml version="1.0" encoding="utf-8"?>
<svg version="1.1" xmlns:xlink="http://www.w3.org/1999/xlink" width="7px" height="21px" xmlns="http://www.w3.org/2000/svg">
  <g transform="matrix(1 0 0 1 -112 -180 )">
    <path d="M 6.91818181818182 4.78819444444445  C 6.9969696969697 4.91782407407407  7.01212121212121 5.05960648148148  6.96363636363636 5.21354166666667  C 6.90909090909091 5.36747685185185  6.82121212121212 5.44444444444445  6.7 5.44444444444445  L 4.66363636363636 5.44444444444445  L 4.66363636363636 20.6111111111111  C 4.66363636363636 20.724537037037  4.63636363636364 20.8177083333333  4.58181818181818 20.890625  C 4.52727272727273 20.9635416666667  4.45757575757576 21  4.37272727272727 21  L 2.62727272727273 21  C 2.54242424242424 21  2.47272727272727 20.9635416666667  2.41818181818182 20.890625  C 2.36363636363636 20.8177083333333  2.33636363636364 20.724537037037  2.33636363636364 20.6111111111111  L 2.33636363636364 5.44444444444445  L 0.3 5.44444444444445  C 0.172727272727273 5.44444444444445  0.0848484848484849 5.36747685185185  0.0363636363636364 5.21354166666667  C -0.0121212121212121 5.05960648148148  0.00303030303030302 4.91782407407407  0.0818181818181818 4.78819444444445  L 3.26363636363636 0.121527777777779  C 3.32424242424242 0.0405092592592589  3.39393939393939 0  3.47272727272727 0  C 3.55757575757576 0  3.63030303030303 0.0405092592592589  3.69090909090909 0.121527777777779  L 6.91818181818182 4.78819444444445  Z " fill-rule="nonzero" fill="#d9001b" stroke="none" transform="matrix(1 0 0 1 112 180 )" />
  </g>
</svg>