<?xml version="1.0" encoding="utf-8"?>
<svg version="1.1" xmlns:xlink="http://www.w3.org/1999/xlink" width="4px" height="12px" xmlns="http://www.w3.org/2000/svg">
  <g transform="matrix(1 0 0 1 -858 -219 )">
    <path d="M 3.95324675324675 2.73611111111111  C 3.9982683982684 2.81018518518518  4.00692640692641 2.8912037037037  3.97922077922078 2.97916666666667  C 3.94805194805195 3.06712962962963  3.8978354978355 3.11111111111111  3.82857142857143 3.11111111111111  L 2.66493506493507 3.11111111111111  L 2.66493506493507 11.7777777777778  C 2.66493506493507 11.8425925925926  2.64935064935065 11.8958333333333  2.61818181818182 11.9375  C 2.58701298701299 11.9791666666667  2.54718614718615 12  2.4987012987013 12  L 1.5012987012987 12  C 1.45281385281385 12  1.41298701298701 11.9791666666667  1.38181818181818 11.9375  C 1.35064935064935 11.8958333333333  1.33506493506494 11.8425925925926  1.33506493506494 11.7777777777778  L 1.33506493506494 3.11111111111111  L 0.171428571428571 3.11111111111111  C 0.0987012987012987 3.11111111111111  0.0484848484848485 3.06712962962963  0.0207792207792208 2.97916666666667  C -0.00692640692640693 2.8912037037037  0.00173160173160173 2.81018518518518  0.0467532467532468 2.73611111111111  L 1.86493506493506 0.0694444444444451  C 1.8995670995671 0.0231481481481479  1.93939393939394 0  1.98441558441558 0  C 2.03290043290043 0  2.07445887445887 0.0231481481481479  2.10909090909091 0.0694444444444451  L 3.95324675324675 2.73611111111111  Z " fill-rule="nonzero" fill="#d9001b" stroke="none" transform="matrix(1 0 0 1 858 219 )" />
  </g>
</svg>