<?xml version="1.0" encoding="utf-8"?>
<svg version="1.1" xmlns:xlink="http://www.w3.org/1999/xlink" width="12px" height="12px" viewBox="747 182  12 12" xmlns="http://www.w3.org/2000/svg">
  <path d="M 753 182  C 756.36 182  759 184.64  759 188  C 759 191.36  756.36 194  753 194  C 749.64 194  747 191.36  747 188  C 747 184.64  749.64 182  753 182  Z " fill-rule="nonzero" fill="#ffffff" stroke="none" />
  <path d="M 753 182.5  C 756.08 182.5  758.5 184.92  758.5 188  C 758.5 191.08  756.08 193.5  753 193.5  C 749.92 193.5  747.5 191.08  747.5 188  C 747.5 184.92  749.92 182.5  753 182.5  Z " stroke-width="1" stroke="#797979" fill="none" />
  <path d="M 753 191  C 751.32 191  750 189.68  750 188  C 750 186.32  751.32 185  753 185  C 754.68 185  756 186.32  756 188  C 756 189.68  754.68 191  753 191  " fill-rule="nonzero" fill="#797979" stroke="none" />
</svg>