<?xml version="1.0" encoding="utf-8"?>
<svg version="1.1" xmlns:xlink="http://www.w3.org/1999/xlink" width="12px" height="12px" viewBox="658 182  12 12" xmlns="http://www.w3.org/2000/svg">
  <path d="M 664 182  C 667.36 182  670 184.64  670 188  C 670 191.36  667.36 194  664 194  C 660.64 194  658 191.36  658 188  C 658 184.64  660.64 182  664 182  Z " fill-rule="nonzero" fill="#ffffff" stroke="none" />
  <path d="M 664 182.5  C 667.08 182.5  669.5 184.92  669.5 188  C 669.5 191.08  667.08 193.5  664 193.5  C 660.92 193.5  658.5 191.08  658.5 188  C 658.5 184.92  660.92 182.5  664 182.5  Z " stroke-width="1" stroke="#797979" fill="none" />
  <path d="M 664 191  C 662.32 191  661 189.68  661 188  C 661 186.32  662.32 185  664 185  C 665.68 185  667 186.32  667 188  C 667 189.68  665.68 191  664 191  " fill-rule="nonzero" fill="#797979" stroke="none" />
</svg>