<?xml version="1.0" encoding="utf-8"?>
<svg version="1.1" xmlns:xlink="http://www.w3.org/1999/xlink" width="60px" height="60px" xmlns="http://www.w3.org/2000/svg">
  <g transform="matrix(1 0 0 1 -213 -1691 )">
    <path d="M 213 1691  L 273 1691  L 273 1751  L 213 1751  L 213 1691  " fill-rule="nonzero" fill="#cccccc" stroke="none" />
    <path d="M 217 1695  L 269 1695  L 269 1747  L 217 1747  L 217 1695  " fill-rule="nonzero" fill="#ffffff" stroke="none" />
    <path d="M 248.7 1709  C 246.18 1709  244.2 1707.02  244.2 1704.5  C 244.2 1701.98  246.18 1700  248.7 1700  C 251.22 1700  253.2 1701.98  253.2 1704.5  C 253.2 1707.02  251.22 1709  248.7 1709  " fill-rule="nonzero" fill="#cccccc" stroke="none" />
    <path d="M 219 1746  L 219 1719.05  L 231.25 1706.8  L 248.4 1716.6  L 258.2 1714.15  L 268 1716.6  L 268 1746  L 219 1746  " fill-rule="nonzero" fill="#169bd5" stroke="none" />
  </g>
</svg>