<?xml version="1.0" encoding="utf-8"?>
<svg version="1.1" xmlns:xlink="http://www.w3.org/1999/xlink" width="60px" height="60px" xmlns="http://www.w3.org/2000/svg">
  <g transform="matrix(1 0 0 1 -213 -1607 )">
    <path d="M 213 1607  L 273 1607  L 273 1667  L 213 1667  L 213 1607  " fill-rule="nonzero" fill="#cccccc" stroke="none" />
    <path d="M 217 1611  L 269 1611  L 269 1663  L 217 1663  L 217 1611  " fill-rule="nonzero" fill="#ffffff" stroke="none" />
    <path d="M 248.7 1625  C 246.18 1625  244.2 1623.02  244.2 1620.5  C 244.2 1617.98  246.18 1616  248.7 1616  C 251.22 1616  253.2 1617.98  253.2 1620.5  C 253.2 1623.02  251.22 1625  248.7 1625  " fill-rule="nonzero" fill="#cccccc" stroke="none" />
    <path d="M 219 1662  L 219 1635.05  L 231.25 1622.8  L 248.4 1632.6  L 258.2 1630.15  L 268 1632.6  L 268 1662  L 219 1662  " fill-rule="nonzero" fill="#169bd5" stroke="none" />
  </g>
</svg>