<?xml version="1.0" encoding="utf-8"?>
<svg version="1.1" xmlns:xlink="http://www.w3.org/1999/xlink" width="60px" height="60px" xmlns="http://www.w3.org/2000/svg">
  <g transform="matrix(1 0 0 1 -213 -1693 )">
    <path d="M 213 1693  L 273 1693  L 273 1753  L 213 1753  L 213 1693  " fill-rule="nonzero" fill="#cccccc" stroke="none" />
    <path d="M 217 1697  L 269 1697  L 269 1749  L 217 1749  L 217 1697  " fill-rule="nonzero" fill="#ffffff" stroke="none" />
    <path d="M 248.7 1711  C 246.18 1711  244.2 1709.02  244.2 1706.5  C 244.2 1703.98  246.18 1702  248.7 1702  C 251.22 1702  253.2 1703.98  253.2 1706.5  C 253.2 1709.02  251.22 1711  248.7 1711  " fill-rule="nonzero" fill="#cccccc" stroke="none" />
    <path d="M 219 1748  L 219 1721.05  L 231.25 1708.8  L 248.4 1718.6  L 258.2 1716.15  L 268 1718.6  L 268 1748  L 219 1748  " fill-rule="nonzero" fill="#169bd5" stroke="none" />
  </g>
</svg>