<?xml version="1.0" encoding="utf-8"?>
<svg version="1.1" xmlns:xlink="http://www.w3.org/1999/xlink" width="60px" height="60px" xmlns="http://www.w3.org/2000/svg">
  <g transform="matrix(1 0 0 1 -213 -1657 )">
    <path d="M 213 1657  L 273 1657  L 273 1717  L 213 1717  L 213 1657  " fill-rule="nonzero" fill="#cccccc" stroke="none" />
    <path d="M 217 1661  L 269 1661  L 269 1713  L 217 1713  L 217 1661  " fill-rule="nonzero" fill="#ffffff" stroke="none" />
    <path d="M 248.7 1675  C 246.18 1675  244.2 1673.02  244.2 1670.5  C 244.2 1667.98  246.18 1666  248.7 1666  C 251.22 1666  253.2 1667.98  253.2 1670.5  C 253.2 1673.02  251.22 1675  248.7 1675  " fill-rule="nonzero" fill="#cccccc" stroke="none" />
    <path d="M 219 1712  L 219 1685.05  L 231.25 1672.8  L 248.4 1682.6  L 258.2 1680.15  L 268 1682.6  L 268 1712  L 219 1712  " fill-rule="nonzero" fill="#169bd5" stroke="none" />
  </g>
</svg>