<?xml version="1.0" encoding="utf-8"?>
<svg version="1.1" xmlns:xlink="http://www.w3.org/1999/xlink" width="705px" height="435px" xmlns="http://www.w3.org/2000/svg">
  <g transform="matrix(1 0 0 1 -50 -2023 )">
    <path d="M 50 2023  L 755 2023  L 755 2458  L 50 2458  L 50 2023  " fill-rule="nonzero" fill="#cccccc" stroke="none" />
    <path d="M 80 2053  L 725 2053  L 725 2428  L 80 2428  L 80 2053  " fill-rule="nonzero" fill="#ffffff" stroke="none" />
    <path d="M 449.225 2153.5  C 430.955 2153.5  416.6 2139.145  416.6 2120.875  C 416.6 2102.605  430.955 2088.25  449.225 2088.25  C 467.495 2088.25  481.85 2102.605  481.85 2120.875  C 481.85 2139.145  467.495 2153.5  449.225 2153.5  " fill-rule="nonzero" fill="#cccccc" stroke="none" />
    <path d="M 91 2417  L 91 2222.85  L 246.75 2134.6  L 464.8 2286.31489361702  L 589.4 2187.55  L 714 2286.31489361702  L 714 2417  L 91 2417  " fill-rule="nonzero" fill="#169bd5" stroke="none" />
  </g>
</svg>