<?xml version="1.0" encoding="utf-8"?>
<svg version="1.1" xmlns:xlink="http://www.w3.org/1999/xlink" width="745px" height="460px" xmlns="http://www.w3.org/2000/svg">
  <g transform="matrix(1 0 0 1 -555 -839 )">
    <path d="M 555 839  L 1300 839  L 1300 1299  L 555 1299  L 555 839  " fill-rule="nonzero" fill="#cccccc" stroke="none" />
    <path d="M 587 871  L 1268 871  L 1268 1267  L 587 1267  L 587 871  " fill-rule="nonzero" fill="#ffffff" stroke="none" />
    <path d="M 976.9 977  C 957.58 977  942.4 961.82  942.4 942.5  C 942.4 923.18  957.58 908  976.9 908  C 996.22 908  1011.4 923.18  1011.4 942.5  C 1011.4 961.82  996.22 977  976.9 977  " fill-rule="nonzero" fill="#cccccc" stroke="none" />
    <path d="M 599 1256  L 599 1050.85  L 763.5 957.6  L 993.8 1117.81476510067  L 1125.4 1013.55  L 1257 1117.81476510067  L 1257 1256  L 599 1256  " fill-rule="nonzero" fill="#169bd5" stroke="none" />
  </g>
</svg>