<?xml version="1.0" encoding="utf-8"?>
<svg version="1.1" xmlns:xlink="http://www.w3.org/1999/xlink" width="390px" height="240px" xmlns="http://www.w3.org/2000/svg">
  <g transform="matrix(1 0 0 1 -50 -2582 )">
    <path d="M 50 2582  L 440 2582  L 440 2822  L 50 2822  L 50 2582  " fill-rule="nonzero" fill="#cccccc" stroke="none" />
    <path d="M 67 2599  L 423 2599  L 423 2805  L 67 2805  L 67 2599  " fill-rule="nonzero" fill="#ffffff" stroke="none" />
    <path d="M 270.8 2654  C 260.72 2654  252.8 2646.08  252.8 2636  C 252.8 2625.92  260.72 2618  270.8 2618  C 280.88 2618  288.8 2625.92  288.8 2636  C 288.8 2646.08  280.88 2654  270.8 2654  " fill-rule="nonzero" fill="#cccccc" stroke="none" />
    <path d="M 73 2799  L 73 2692.3  L 159 2643.8  L 279.4 2727.36923076923  L 348.2 2672.9  L 417 2727.36923076923  L 417 2799  L 73 2799  " fill-rule="nonzero" fill="#169bd5" stroke="none" />
  </g>
</svg>