<?xml version="1.0" encoding="utf-8"?>
<svg version="1.1" xmlns:xlink="http://www.w3.org/1999/xlink" width="705px" height="435px" xmlns="http://www.w3.org/2000/svg">
  <g transform="matrix(1 0 0 1 -50 -2091 )">
    <path d="M 50 2091  L 755 2091  L 755 2526  L 50 2526  L 50 2091  " fill-rule="nonzero" fill="#cccccc" stroke="none" />
    <path d="M 80 2121  L 725 2121  L 725 2496  L 80 2496  L 80 2121  " fill-rule="nonzero" fill="#ffffff" stroke="none" />
    <path d="M 449.225 2221.5  C 430.955 2221.5  416.6 2207.145  416.6 2188.875  C 416.6 2170.605  430.955 2156.25  449.225 2156.25  C 467.495 2156.25  481.85 2170.605  481.85 2188.875  C 481.85 2207.145  467.495 2221.5  449.225 2221.5  " fill-rule="nonzero" fill="#cccccc" stroke="none" />
    <path d="M 91 2485  L 91 2290.85  L 246.75 2202.6  L 464.8 2354.31489361702  L 589.4 2255.55  L 714 2354.31489361702  L 714 2485  L 91 2485  " fill-rule="nonzero" fill="#169bd5" stroke="none" />
  </g>
</svg>