<?xml version="1.0" encoding="utf-8"?>
<svg version="1.1" xmlns:xlink="http://www.w3.org/1999/xlink" width="705px" height="435px" xmlns="http://www.w3.org/2000/svg">
  <g transform="matrix(1 0 0 1 -50 -2073 )">
    <path d="M 50 2073  L 755 2073  L 755 2508  L 50 2508  L 50 2073  " fill-rule="nonzero" fill="#cccccc" stroke="none" />
    <path d="M 80 2103  L 725 2103  L 725 2478  L 80 2478  L 80 2103  " fill-rule="nonzero" fill="#ffffff" stroke="none" />
    <path d="M 449.225 2203.5  C 430.955 2203.5  416.6 2189.145  416.6 2170.875  C 416.6 2152.605  430.955 2138.25  449.225 2138.25  C 467.495 2138.25  481.85 2152.605  481.85 2170.875  C 481.85 2189.145  467.495 2203.5  449.225 2203.5  " fill-rule="nonzero" fill="#cccccc" stroke="none" />
    <path d="M 91 2467  L 91 2272.85  L 246.75 2184.6  L 464.8 2336.31489361702  L 589.4 2237.55  L 714 2336.31489361702  L 714 2467  L 91 2467  " fill-rule="nonzero" fill="#169bd5" stroke="none" />
  </g>
</svg>