<?xml version="1.0" encoding="utf-8"?>
<svg version="1.1" xmlns:xlink="http://www.w3.org/1999/xlink" width="745px" height="460px" xmlns="http://www.w3.org/2000/svg">
  <g transform="matrix(1 0 0 1 -555 -889 )">
    <path d="M 555 889  L 1300 889  L 1300 1349  L 555 1349  L 555 889  " fill-rule="nonzero" fill="#cccccc" stroke="none" />
    <path d="M 587 921  L 1268 921  L 1268 1317  L 587 1317  L 587 921  " fill-rule="nonzero" fill="#ffffff" stroke="none" />
    <path d="M 976.9 1027  C 957.58 1027  942.4 1011.82  942.4 992.5  C 942.4 973.18  957.58 958  976.9 958  C 996.22 958  1011.4 973.18  1011.4 992.5  C 1011.4 1011.82  996.22 1027  976.9 1027  " fill-rule="nonzero" fill="#cccccc" stroke="none" />
    <path d="M 599 1306  L 599 1100.85  L 763.5 1007.6  L 993.8 1167.81476510067  L 1125.4 1063.55  L 1257 1167.81476510067  L 1257 1306  L 599 1306  " fill-rule="nonzero" fill="#169bd5" stroke="none" />
  </g>
</svg>