<?xml version="1.0" encoding="utf-8"?>
<svg version="1.1" xmlns:xlink="http://www.w3.org/1999/xlink" width="390px" height="240px" xmlns="http://www.w3.org/2000/svg">
  <g transform="matrix(1 0 0 1 -50 -2632 )">
    <path d="M 50 2632  L 440 2632  L 440 2872  L 50 2872  L 50 2632  " fill-rule="nonzero" fill="#cccccc" stroke="none" />
    <path d="M 67 2649  L 423 2649  L 423 2855  L 67 2855  L 67 2649  " fill-rule="nonzero" fill="#ffffff" stroke="none" />
    <path d="M 270.8 2704  C 260.72 2704  252.8 2696.08  252.8 2686  C 252.8 2675.92  260.72 2668  270.8 2668  C 280.88 2668  288.8 2675.92  288.8 2686  C 288.8 2696.08  280.88 2704  270.8 2704  " fill-rule="nonzero" fill="#cccccc" stroke="none" />
    <path d="M 73 2849  L 73 2742.3  L 159 2693.8  L 279.4 2777.36923076923  L 348.2 2722.9  L 417 2777.36923076923  L 417 2849  L 73 2849  " fill-rule="nonzero" fill="#169bd5" stroke="none" />
  </g>
</svg>