<?xml version="1.0" encoding="utf-8"?>
<svg version="1.1" xmlns:xlink="http://www.w3.org/1999/xlink" width="745px" height="460px" xmlns="http://www.w3.org/2000/svg">
  <g transform="matrix(1 0 0 1 -555 -965 )">
    <path d="M 555 965  L 1300 965  L 1300 1425  L 555 1425  L 555 965  " fill-rule="nonzero" fill="#cccccc" stroke="none" />
    <path d="M 587 997  L 1268 997  L 1268 1393  L 587 1393  L 587 997  " fill-rule="nonzero" fill="#ffffff" stroke="none" />
    <path d="M 976.9 1103  C 957.58 1103  942.4 1087.82  942.4 1068.5  C 942.4 1049.18  957.58 1034  976.9 1034  C 996.22 1034  1011.4 1049.18  1011.4 1068.5  C 1011.4 1087.82  996.22 1103  976.9 1103  " fill-rule="nonzero" fill="#cccccc" stroke="none" />
    <path d="M 599 1382  L 599 1176.85  L 763.5 1083.6  L 993.8 1243.81476510067  L 1125.4 1139.55  L 1257 1243.81476510067  L 1257 1382  L 599 1382  " fill-rule="nonzero" fill="#169bd5" stroke="none" />
  </g>
</svg>