<?xml version="1.0" encoding="utf-8"?>
<svg version="1.1" xmlns:xlink="http://www.w3.org/1999/xlink" width="17px" height="31px" xmlns="http://www.w3.org/2000/svg">
  <g transform="matrix(1 0 0 1 -854 -2033 )">
    <path d="M 16.4392361111111 14.1376953125  C 16.8130787037037 14.5211588541667  17 14.9752604166667  17 15.5  C 17 16.0247395833333  16.8130787037037 16.4788411458333  16.4392361111111 16.8623046875  L 3.21701388888889 30.4248046875  C 2.8431712962963 30.8082682291667  2.40046296296296 31  1.88888888888889 31  C 1.37731481481482 31  0.934606481481482 30.8082682291667  0.560763888888889 30.4248046875  C 0.186921296296296 30.0413411458333  0 29.5872395833333  0 29.0625  L 0 1.9375  C 0 1.41276041666666  0.186921296296296 0.958658854166662  0.560763888888889 0.5751953125  C 0.934606481481482 0.191731770833331  1.37731481481482 0  1.88888888888889 0  C 2.40046296296296 0  2.8431712962963 0.191731770833331  3.21701388888889 0.5751953125  L 16.4392361111111 14.1376953125  Z " fill-rule="nonzero" fill="#000000" stroke="none" transform="matrix(1 0 0 1 854 2033 )" />
  </g>
</svg>