<?xml version="1.0" encoding="utf-8"?>
<svg version="1.1" xmlns:xlink="http://www.w3.org/1999/xlink" width="17px" height="31px" xmlns="http://www.w3.org/2000/svg">
  <g transform="matrix(1 0 0 1 -697 -2033 )">
    <path d="M 16.4392361111111 0.5751953125  C 16.8130787037037 0.958658854166662  17 1.41276041666666  17 1.9375  L 17 29.0625  C 17 29.5872395833333  16.8130787037037 30.0413411458333  16.4392361111111 30.4248046875  C 16.0653935185185 30.8082682291667  15.6226851851852 31  15.1111111111111 31  C 14.599537037037 31  14.1568287037037 30.8082682291667  13.7829861111111 30.4248046875  L 0.560763888888889 16.8623046875  C 0.186921296296297 16.4788411458333  0 16.0247395833333  0 15.5  C 0 14.9752604166667  0.186921296296297 14.5211588541667  0.560763888888889 14.1376953125  L 13.7829861111111 0.5751953125  C 14.1568287037037 0.191731770833331  14.599537037037 0  15.1111111111111 0  C 15.6226851851852 0  16.0653935185185 0.191731770833331  16.4392361111111 0.5751953125  Z " fill-rule="nonzero" fill="#8c8c8c" stroke="none" transform="matrix(1 0 0 1 697 2033 )" />
  </g>
</svg>