<?xml version="1.0" encoding="utf-8"?>
<svg version="1.1" xmlns:xlink="http://www.w3.org/1999/xlink" width="5px" height="17px" xmlns="http://www.w3.org/2000/svg">
  <g transform="matrix(1 0 0 1 -1132 -1661 )">
    <path d="M 4.94155844155844 3.87615740740741  C 4.9978354978355 3.98109567901234  5.00865800865801 4.09587191358025  4.97402597402597 4.22048611111111  C 4.93506493506494 4.34510030864197  4.87229437229437 4.40740740740741  4.78571428571429 4.40740740740741  L 3.33116883116883 4.40740740740741  L 3.33116883116883 16.6851851851852  C 3.33116883116883 16.7770061728395  3.31168831168831 16.8524305555556  3.27272727272727 16.9114583333333  C 3.23376623376623 16.9704861111111  3.18398268398268 17  3.12337662337662 17  L 1.87662337662338 17  C 1.81601731601732 17  1.76623376623377 16.9704861111111  1.72727272727273 16.9114583333333  C 1.68831168831169 16.8524305555556  1.66883116883117 16.7770061728395  1.66883116883117 16.6851851851852  L 1.66883116883117 4.40740740740741  L 0.214285714285714 4.40740740740741  C 0.123376623376623 4.40740740740741  0.0606060606060606 4.34510030864197  0.025974025974026 4.22048611111111  C -0.00865800865800866 4.09587191358025  0.00216450216450216 3.98109567901234  0.0584415584415584 3.87615740740741  L 2.33116883116883 0.0983796296296305  C 2.37445887445887 0.0327932098765429  2.42424242424242 0  2.48051948051948 0  C 2.54112554112554 0  2.59307359307359 0.0327932098765429  2.63636363636364 0.0983796296296305  L 4.94155844155844 3.87615740740741  Z " fill-rule="nonzero" fill="#d9001b" stroke="none" transform="matrix(1 0 0 1 1132 1661 )" />
  </g>
</svg>